<mxfile host="app.diagrams.net" modified="2024-02-02T02:39:59.125Z" agent="Mozilla/5.0 (Windows NT 10.0; Win64; x64) AppleWebKit/537.36 (KHTML, like Gecko) Chrome/121.0.0.0 Safari/537.36" etag="G3PIrjcTr0xi7TaQYqm5" version="23.1.1" type="github">
  <diagram name="Page-1" id="MCdGiBND7_cmivRl_Bog">
    <mxGraphModel dx="880" dy="478" grid="1" gridSize="10" guides="1" tooltips="1" connect="1" arrows="1" fold="1" page="1" pageScale="1" pageWidth="850" pageHeight="1100" math="0" shadow="0">
      <root>
        <mxCell id="0" />
        <mxCell id="1" parent="0" />
        <mxCell id="9g3y7pR6EF4BQow3a13L-3" style="edgeStyle=orthogonalEdgeStyle;rounded=0;orthogonalLoop=1;jettySize=auto;html=1;exitX=1;exitY=0.5;exitDx=0;exitDy=0;" edge="1" parent="1" source="9g3y7pR6EF4BQow3a13L-1" target="9g3y7pR6EF4BQow3a13L-2">
          <mxGeometry relative="1" as="geometry" />
        </mxCell>
        <mxCell id="9g3y7pR6EF4BQow3a13L-1" value="User" style="rounded=1;whiteSpace=wrap;html=1;" vertex="1" parent="1">
          <mxGeometry x="40" y="200" width="120" height="60" as="geometry" />
        </mxCell>
        <mxCell id="9g3y7pR6EF4BQow3a13L-5" style="edgeStyle=orthogonalEdgeStyle;rounded=0;orthogonalLoop=1;jettySize=auto;html=1;exitX=1;exitY=0.5;exitDx=0;exitDy=0;entryX=0;entryY=0.5;entryDx=0;entryDy=0;" edge="1" parent="1" source="9g3y7pR6EF4BQow3a13L-2" target="9g3y7pR6EF4BQow3a13L-4">
          <mxGeometry relative="1" as="geometry" />
        </mxCell>
        <mxCell id="9g3y7pR6EF4BQow3a13L-2" value="Mengunjungi Perpus" style="rounded=1;whiteSpace=wrap;html=1;" vertex="1" parent="1">
          <mxGeometry x="200" y="200" width="120" height="60" as="geometry" />
        </mxCell>
        <mxCell id="9g3y7pR6EF4BQow3a13L-9" style="edgeStyle=orthogonalEdgeStyle;rounded=0;orthogonalLoop=1;jettySize=auto;html=1;exitX=1;exitY=0.5;exitDx=0;exitDy=0;" edge="1" parent="1" source="9g3y7pR6EF4BQow3a13L-4" target="9g3y7pR6EF4BQow3a13L-8">
          <mxGeometry relative="1" as="geometry" />
        </mxCell>
        <mxCell id="9g3y7pR6EF4BQow3a13L-4" value="Isi form pengunjung" style="rounded=1;whiteSpace=wrap;html=1;" vertex="1" parent="1">
          <mxGeometry x="360" y="100" width="120" height="60" as="geometry" />
        </mxCell>
        <mxCell id="9g3y7pR6EF4BQow3a13L-16" style="edgeStyle=orthogonalEdgeStyle;rounded=0;orthogonalLoop=1;jettySize=auto;html=1;exitX=1;exitY=0.5;exitDx=0;exitDy=0;entryX=0;entryY=0.5;entryDx=0;entryDy=0;" edge="1" parent="1" source="9g3y7pR6EF4BQow3a13L-6" target="9g3y7pR6EF4BQow3a13L-13">
          <mxGeometry relative="1" as="geometry" />
        </mxCell>
        <mxCell id="9g3y7pR6EF4BQow3a13L-19" style="edgeStyle=orthogonalEdgeStyle;rounded=0;orthogonalLoop=1;jettySize=auto;html=1;exitX=0.5;exitY=1;exitDx=0;exitDy=0;entryX=0;entryY=0.5;entryDx=0;entryDy=0;" edge="1" parent="1" source="9g3y7pR6EF4BQow3a13L-6" target="9g3y7pR6EF4BQow3a13L-15">
          <mxGeometry relative="1" as="geometry" />
        </mxCell>
        <mxCell id="9g3y7pR6EF4BQow3a13L-6" value="Pencarian buku" style="rounded=1;whiteSpace=wrap;html=1;" vertex="1" parent="1">
          <mxGeometry x="360" y="280" width="120" height="60" as="geometry" />
        </mxCell>
        <mxCell id="9g3y7pR6EF4BQow3a13L-7" style="edgeStyle=orthogonalEdgeStyle;rounded=0;orthogonalLoop=1;jettySize=auto;html=1;exitX=1;exitY=0.5;exitDx=0;exitDy=0;entryX=-0.033;entryY=0.65;entryDx=0;entryDy=0;entryPerimeter=0;" edge="1" parent="1" source="9g3y7pR6EF4BQow3a13L-2" target="9g3y7pR6EF4BQow3a13L-6">
          <mxGeometry relative="1" as="geometry">
            <Array as="points">
              <mxPoint x="340" y="230" />
              <mxPoint x="340" y="319" />
            </Array>
          </mxGeometry>
        </mxCell>
        <mxCell id="9g3y7pR6EF4BQow3a13L-11" style="edgeStyle=orthogonalEdgeStyle;rounded=0;orthogonalLoop=1;jettySize=auto;html=1;exitX=1;exitY=0.5;exitDx=0;exitDy=0;" edge="1" parent="1" source="9g3y7pR6EF4BQow3a13L-8" target="9g3y7pR6EF4BQow3a13L-10">
          <mxGeometry relative="1" as="geometry" />
        </mxCell>
        <mxCell id="9g3y7pR6EF4BQow3a13L-8" value="Kirim" style="rounded=1;whiteSpace=wrap;html=1;" vertex="1" parent="1">
          <mxGeometry x="520" y="100" width="120" height="60" as="geometry" />
        </mxCell>
        <mxCell id="9g3y7pR6EF4BQow3a13L-10" value="Daftar kunjungan" style="rounded=1;whiteSpace=wrap;html=1;" vertex="1" parent="1">
          <mxGeometry x="680" y="100" width="120" height="60" as="geometry" />
        </mxCell>
        <mxCell id="9g3y7pR6EF4BQow3a13L-12" style="edgeStyle=orthogonalEdgeStyle;rounded=0;orthogonalLoop=1;jettySize=auto;html=1;exitX=0.5;exitY=1;exitDx=0;exitDy=0;entryX=0.408;entryY=1.033;entryDx=0;entryDy=0;entryPerimeter=0;" edge="1" parent="1" source="9g3y7pR6EF4BQow3a13L-10" target="9g3y7pR6EF4BQow3a13L-4">
          <mxGeometry relative="1" as="geometry">
            <Array as="points">
              <mxPoint x="740" y="200" />
              <mxPoint x="409" y="200" />
            </Array>
          </mxGeometry>
        </mxCell>
        <mxCell id="9g3y7pR6EF4BQow3a13L-17" style="edgeStyle=orthogonalEdgeStyle;rounded=0;orthogonalLoop=1;jettySize=auto;html=1;exitX=1;exitY=0.5;exitDx=0;exitDy=0;entryX=0;entryY=0.5;entryDx=0;entryDy=0;" edge="1" parent="1" source="9g3y7pR6EF4BQow3a13L-13" target="9g3y7pR6EF4BQow3a13L-14">
          <mxGeometry relative="1" as="geometry" />
        </mxCell>
        <mxCell id="9g3y7pR6EF4BQow3a13L-13" value="Masukan kata kunci&lt;br&gt;judul" style="rounded=1;whiteSpace=wrap;html=1;" vertex="1" parent="1">
          <mxGeometry x="520" y="280" width="120" height="60" as="geometry" />
        </mxCell>
        <mxCell id="9g3y7pR6EF4BQow3a13L-18" style="edgeStyle=orthogonalEdgeStyle;rounded=0;orthogonalLoop=1;jettySize=auto;html=1;exitX=0.5;exitY=1;exitDx=0;exitDy=0;entryX=0.5;entryY=0;entryDx=0;entryDy=0;" edge="1" parent="1" source="9g3y7pR6EF4BQow3a13L-14" target="9g3y7pR6EF4BQow3a13L-15">
          <mxGeometry relative="1" as="geometry" />
        </mxCell>
        <mxCell id="9g3y7pR6EF4BQow3a13L-14" value="Hasil pencarian" style="rounded=1;whiteSpace=wrap;html=1;" vertex="1" parent="1">
          <mxGeometry x="680" y="280" width="120" height="60" as="geometry" />
        </mxCell>
        <mxCell id="9g3y7pR6EF4BQow3a13L-15" value="Lihat rician buku" style="rounded=1;whiteSpace=wrap;html=1;" vertex="1" parent="1">
          <mxGeometry x="680" y="400" width="120" height="60" as="geometry" />
        </mxCell>
      </root>
    </mxGraphModel>
  </diagram>
</mxfile>
